# xmcd CD database file
#
# Track frame offsets:
#	150
#	48590
#	68165
#	83424
#	100165
#	118057
#	136770
#	152424
#	167974
#	182053
#	197986
#	213787
#	232509
#	253169
#	268721
#	289124
#	308505
#	325907
#
# Disc length: 4349 seconds
#
# Revision: 0
# Processed by: cddbd v1.5.2PL0 Copyright (c) Steve Scherf et al.
# Submitted via: CDex 1.74
#
DISCID=f210fb12
DTITLE=Various Artist - Mix Disc''040507''2  (Salsa Megamix)
DYEAR=2009
DGENRE=Salsa
TTITLE0=No Me Dejes De Querer (Megamix) - Gloria Estefan Ana Gabriel Chayanne Los Rabanes Dj Sergio Lopez
TTITLE1=Uno Nunca Sabe - Alicastro
TTITLE2=Ni Freud Ni Tu Mama - Belinda
TTITLE3=La Cadena De Oro - Cabas
TTITLE4=Es Mejor Asi - Cristian Castro
TTITLE5=Abriendo Caminos - Diego Torres
TTITLE6=Escape (Pre Club Mix) - Enrique Iglesias
TTITLE7=Todos Me Miran - Gloria Trevi
TTITLE8=Me Voy - Julieta Venegas
TTITLE9=Al Pasar - Kabah Con Alejandra Guzman
TTITLE10=Asereje (1) - Las Ketchup
TTITLE11=Spacecacuore - Laura Pausini
TTITLE12=El Matador - Los Fabulosos Cadillacs
TTITLE13=Senorita A Mi Me Gusta Su Style - Los Rabanes
TTITLE14=Labios Compartidos - Mana
TTITLE15=Muriendo Lento - Belinda and Moderato
TTITLE16=Ni Una Sola Palabra - Paulina Rubio
TTITLE17=Blanko - Blanko
EXTD=YEAR: 2009
EXTT0=
EXTT1=
EXTT2=
EXTT3=
EXTT4=
EXTT5=
EXTT6=
EXTT7=
EXTT8=
EXTT9=
EXTT10=
EXTT11=
EXTT12=
EXTT13=
EXTT14=
EXTT15=
EXTT16=
EXTT17=
PLAYORDER=
